<?xml version="1.0" standalone="no"?>
<!DOCTYPE svg PUBLIC "-//W3C//DTD SVG 20010904//EN"
 "http://www.w3.org/TR/2001/REC-SVG-20010904/DTD/svg10.dtd">
<svg version="1.0" xmlns="http://www.w3.org/2000/svg"
 width="1024.000000pt" height="1024.000000pt" viewBox="0 0 1024.000000 1024.000000"
 preserveAspectRatio="xMidYMid meet">

<g transform="translate(0.000000,1024.000000) scale(0.100000,-0.100000)"
fill="#000000" stroke="none">
<path d="M3983 8113 c241 -2 633 -2 870 0 238 1 41 2 -438 2 -478 0 -673 -1
-432 -2z"/>
<path d="M5368 8113 c29 -2 74 -2 100 0 26 2 2 3 -53 3 -55 0 -76 -1 -47 -3z"/>
<path d="M5553 8113 c20 -2 54 -2 75 0 20 2 3 4 -38 4 -41 0 -58 -2 -37 -4z"/>
<path d="M5738 8113 c7 -3 16 -2 19 1 4 3 -2 6 -13 5 -11 0 -14 -3 -6 -6z"/>
<path d="M5828 8113 c7 -3 16 -2 19 1 4 3 -2 6 -13 5 -11 0 -14 -3 -6 -6z"/>
<path d="M3405 8095 c-66 -17 -38 -17 50 0 45 8 57 13 35 13 -19 0 -57 -6 -85
-13z"/>
<path d="M3275 8061 c-184 -66 -380 -220 -488 -384 -56 -84 -113 -211 -139
-308 -22 -84 -22 -85 -25 -1108 -4 -1135 -5 -1117 60 -1291 64 -170 203 -352
351 -460 86 -62 224 -128 334 -158 l97 -27 1645 0 1645 0 88 22 c190 49 335
130 474 266 130 126 226 288 276 464 22 78 22 80 22 1043 l1 965 -6 -960 c-6
-1047 -3 -986 -65 -1151 -43 -114 -151 -281 -227 -350 -26 -24 -73 -27 -73 -5
0 17 -21 26 -29 12 -4 -5 3 -15 14 -21 24 -13 19 -30 -8 -25 -9 1 -16 10 -16
19 1 9 -3 15 -10 13 -6 -2 -10 -11 -8 -20 2 -11 -2 -15 -13 -11 -20 8 -19 21
1 32 11 6 13 12 6 16 -6 4 -9 13 -5 21 8 23 22 18 16 -6 -4 -16 -2 -20 8 -17
8 3 12 14 11 24 -3 15 -1 17 9 6 16 -14 39 -16 39 -2 0 6 -7 10 -16 10 -11 0
-14 6 -9 20 4 11 2 20 -4 20 -6 0 -11 7 -11 15 0 18 17 20 23 3 2 -7 8 -9 13
-5 5 4 4 11 -2 15 -12 8 -14 52 -2 52 4 0 8 -5 8 -12 0 -6 3 -9 6 -5 3 3 17 2
30 -3 18 -7 22 -6 17 5 -3 8 -10 15 -15 15 -6 0 -5 6 2 15 10 12 10 15 -4 15
-9 0 -16 -7 -16 -15 0 -12 -5 -13 -17 -7 -10 5 -24 7 -30 5 -7 -3 -13 2 -13 9
0 8 6 20 13 27 10 11 8 12 -10 7 -15 -5 -25 -1 -32 11 -9 15 -10 13 -5 -11 5
-22 4 -27 -6 -21 -8 5 -11 4 -6 -3 4 -6 14 -9 24 -6 14 5 14 3 -2 -10 -20 -16
-20 -16 1 -16 34 0 46 -23 23 -43 -28 -24 -37 -21 -14 5 10 12 13 18 7 14 -8
-4 -23 3 -38 18 -14 15 -30 26 -35 26 -5 0 -10 8 -13 18 -3 14 -4 13 -4 -3 -1
-46 -4 -60 -10 -45 -4 8 -13 20 -22 27 -14 10 -14 12 2 18 9 4 17 11 17 16 0
4 -7 6 -15 3 -11 -5 -13 -2 -9 10 3 9 2 16 -4 16 -6 0 -9 -11 -7 -25 1 -14 -1
-25 -6 -25 -11 0 1 -33 15 -42 7 -5 6 -8 -2 -8 -8 0 -16 9 -19 20 -3 11 -13
20 -22 21 -12 0 -11 2 4 9 11 5 15 9 9 9 -7 1 -12 7 -11 14 1 40 -3 51 -15 39
-10 -10 -10 -15 2 -22 12 -7 12 -12 2 -22 -8 -8 -12 -8 -12 -1 0 6 -6 13 -14
16 -11 4 -13 -1 -10 -21 3 -23 3 -24 -7 -9 -6 10 -8 25 -5 32 3 8 0 17 -6 21
-7 4 -7 9 1 14 9 5 9 14 1 34 -6 17 -6 25 0 21 6 -3 10 -13 10 -21 0 -8 5 -14
10 -14 6 0 10 7 10 16 0 8 5 12 10 9 6 -4 8 -11 4 -16 -3 -6 3 -13 15 -16 12
-3 21 -9 21 -14 0 -5 10 -8 23 -8 16 1 18 2 5 6 -10 2 -18 9 -18 14 0 5 -6 9
-14 9 -9 0 -12 7 -9 20 4 16 0 20 -20 20 -14 0 -37 4 -50 9 -24 9 -25 9 -17
-19 6 -20 4 -30 -5 -34 -14 -5 -25 2 -25 16 0 5 5 6 10 3 6 -3 10 -1 10 4 0 6
-5 11 -11 11 -5 0 -8 4 -5 8 3 5 -6 15 -19 22 -27 15 -34 40 -10 40 9 0 12 -6
9 -15 -8 -19 10 -20 25 -1 10 11 8 15 -5 18 -16 3 -16 4 -2 19 14 14 14 16 -1
26 -16 10 -17 8 -13 -14 4 -23 2 -25 -22 -21 -14 3 -26 1 -26 -3 0 -5 -5 -9
-11 -9 -7 0 -9 10 -7 25 4 19 2 23 -7 15 -6 -5 -15 -7 -19 -3 -3 4 -1 -8 5
-25 6 -18 15 -35 20 -38 12 -7 11 -34 -1 -34 -5 0 -10 5 -10 11 0 26 -48 109
-63 109 -2 0 -4 -11 -4 -25 0 -13 3 -22 8 -19 5 3 6 -2 3 -10 -5 -12 -11 -13
-25 -5 -15 7 -19 6 -19 -5 0 -7 7 -17 16 -20 8 -3 12 -2 9 4 -4 6 5 5 19 -2
14 -6 26 -16 26 -21 0 -5 -6 -4 -14 2 -17 14 -29 0 -20 -23 3 -9 3 -16 0 -16
-4 0 -11 12 -17 27 -8 22 -12 24 -19 13 -8 -13 -10 -12 -10 2 0 12 -5 15 -17
11 -10 -4 -14 -2 -9 5 3 6 2 13 -4 17 -13 8 -13 45 1 45 6 0 9 6 6 13 -2 6 3
18 12 24 13 10 9 10 -18 1 -30 -10 -36 -9 -48 8 -9 12 -23 18 -38 16 -19 -3
-24 0 -19 12 3 9 1 16 -5 16 -6 0 -8 7 -5 15 4 11 2 13 -9 10 -8 -4 -17 1 -20
9 -4 10 -1 16 8 16 23 0 18 24 -12 49 -20 19 -25 20 -19 6 4 -12 2 -16 -8 -12
-10 4 -13 1 -9 -9 6 -16 23 -19 23 -4 0 6 5 10 11 10 5 0 7 -5 4 -10 -3 -6 -8
-31 -11 -57 -2 -25 -9 -52 -16 -60 -6 -8 -7 -13 -2 -12 23 4 45 -2 39 -11 -3
-6 4 -10 17 -11 l23 0 -23 -10 c-26 -10 -46 -3 -37 12 4 5 1 9 -4 9 -6 0 -11
-4 -11 -10 0 -5 -9 -1 -20 10 -21 21 -27 50 -10 50 6 0 10 -5 10 -11 0 -5 5
-7 10 -4 17 11 -10 36 -31 30 -10 -4 -27 -2 -36 4 -16 9 -14 10 10 11 15 0 27
4 27 10 0 5 -8 7 -17 3 -15 -5 -16 -3 -5 8 13 14 16 30 5 28 -23 -4 -43 2 -40
12 1 6 -4 14 -11 16 -8 3 -10 -1 -6 -11 3 -9 2 -16 -4 -16 -5 0 -12 7 -16 15
-3 8 0 15 6 15 9 0 9 3 0 12 -7 7 -12 16 -12 22 0 5 9 0 20 -12 17 -18 25 -20
40 -12 14 7 20 7 20 0 0 -5 -8 -10 -17 -10 -26 0 -6 -13 24 -16 16 -1 22 0 15
3 -10 4 -8 8 5 18 10 7 14 17 10 21 -4 5 -12 2 -17 -6 -8 -12 -10 -12 -10 -1
0 7 -6 11 -14 8 -11 -4 -14 3 -11 34 2 30 -1 39 -12 39 -10 0 -13 -4 -7 -12 5
-7 9 -20 8 -28 -1 -8 -2 -22 -3 -30 -1 -11 -8 -8 -25 11 -22 25 -23 25 -44 9
-12 -10 -18 -21 -14 -25 4 -4 -5 0 -20 10 -27 16 -39 10 -18 -11 6 -6 5 -15
-1 -24 -9 -13 -10 -12 -5 3 3 9 1 17 -5 17 -6 0 -13 -9 -16 -20 -3 -11 -9 -17
-14 -14 -5 3 -9 0 -9 -5 0 -6 -5 -11 -12 -11 -6 0 -1 11 12 24 13 15 20 32 17
40 -4 10 -1 16 8 16 7 0 19 16 25 35 12 35 33 50 28 19 -2 -10 3 -19 10 -22 9
-2 12 3 10 14 -2 12 4 19 17 21 11 1 14 0 8 -3 -20 -9 -15 -24 6 -24 14 0 21
8 23 27 2 19 10 29 23 31 20 4 20 4 0 -11 -11 -9 -17 -18 -14 -22 4 -3 14 2
23 11 21 20 8 37 -28 39 -18 0 -23 -4 -21 -17 3 -13 -3 -18 -18 -19 -12 0 -35
-2 -50 -4 -22 -3 -27 0 -23 10 3 8 -3 19 -12 24 -15 9 -14 11 8 12 14 1 29 1
33 0 5 -1 6 3 3 8 -4 5 -2 12 4 16 5 3 10 12 10 18 0 7 -9 2 -18 -11 -16 -20
-24 -23 -57 -16 -38 7 -38 7 -31 -22 6 -27 5 -28 -8 -10 -11 14 -13 24 -5 38
6 11 8 23 4 26 -3 3 -8 -4 -12 -16 -7 -27 -21 -20 -19 10 1 20 6 23 38 22 21
-1 35 2 32 7 -2 4 -12 5 -21 2 -10 -4 -14 -2 -9 5 3 6 2 13 -2 16 -11 7 -58
-41 -49 -50 3 -3 -2 -22 -12 -42 -10 -21 -23 -48 -30 -62 -9 -21 -10 -22 -5
-2 4 15 1 22 -9 22 -8 0 -20 7 -27 15 -10 12 -9 15 5 15 10 0 14 5 11 13 -3 6
-9 20 -12 30 -4 10 -13 16 -20 13 -7 -3 -16 -1 -19 3 -6 11 23 23 36 15 5 -3
9 -12 9 -20 0 -8 5 -13 11 -11 16 3 22 -45 7 -55 -9 -5 -8 -8 6 -8 14 0 17 5
13 26 -3 17 0 24 7 21 14 -6 19 30 5 38 -17 11 -9 48 16 71 14 13 25 31 25 41
-1 17 -1 17 -11 -1 -9 -15 -13 -16 -21 -5 -7 10 -8 8 -3 -7 3 -13 -1 -26 -10
-34 -8 -7 -15 -26 -15 -42 0 -19 -4 -28 -12 -25 -16 5 -18 37 -5 55 7 9 5 11
-7 6 -10 -4 -25 1 -36 11 -18 16 -20 17 -20 2 0 -10 7 -17 15 -17 8 0 15 -7
15 -16 0 -11 -6 -15 -20 -11 -11 3 -18 1 -14 -4 3 -5 -4 -9 -16 -9 -12 0 -19
-4 -16 -9 3 -5 -4 -11 -15 -14 -24 -7 -68 27 -50 38 14 8 33 -3 26 -15 -3 -5
-1 -11 4 -14 12 -8 21 6 23 38 2 17 8 26 20 26 14 0 16 6 11 32 -4 22 -3 29 5
24 7 -4 12 -1 12 8 0 17 15 21 24 7 7 -11 32 -9 43 4 4 4 -2 6 -14 3 -28 -7
-40 20 -16 38 10 7 13 14 6 14 -6 0 -15 -5 -18 -10 -4 -6 -11 -7 -17 -4 -6 4
-8 2 -5 -3 4 -6 -2 -22 -13 -36 -11 -14 -20 -35 -20 -47 0 -19 -4 -22 -30 -18
-16 3 -30 1 -30 -4 0 -4 7 -8 15 -8 8 0 15 -4 15 -10 0 -5 -6 -7 -14 -4 -8 3
-27 -2 -43 -11 -26 -16 -27 -16 -8 0 20 17 20 17 -2 10 -14 -4 -23 -2 -23 4 0
6 -7 11 -15 11 -8 0 -15 4 -15 9 0 5 7 11 15 15 8 3 15 1 15 -5 0 -6 5 -7 12
-3 7 4 8 3 4 -4 -4 -7 -1 -12 7 -12 8 0 17 9 20 20 4 17 1 19 -18 14 -25 -6
-43 22 -25 40 8 8 9 6 5 -6 -4 -11 -2 -18 5 -18 6 0 9 4 5 9 -13 22 19 22 36
0 10 -13 21 -20 25 -16 4 4 14 1 22 -6 13 -10 14 -9 3 12 -11 19 -15 21 -23
10 -7 -11 -9 -9 -5 7 4 19 0 21 -45 20 -40 -2 -53 2 -64 18 -19 27 -18 36 4
37 11 0 12 2 4 6 -7 3 -23 -3 -34 -13 -12 -11 -18 -14 -15 -7 4 6 3 14 -3 18
-5 3 -10 3 -11 -2 -4 -41 -4 -63 1 -63 3 0 5 -11 5 -25 0 -22 -1 -23 -12 -9
-7 9 -10 21 -7 25 3 5 0 9 -6 9 -6 0 -10 -10 -8 -22 2 -11 -2 -23 -9 -25 -15
-5 -5 36 15 60 8 9 10 17 5 17 -11 0 -31 -20 -76 -74 -19 -24 -25 -26 -30 -13
-4 11 -2 14 8 11 7 -3 18 3 24 14 8 16 7 21 -4 26 -19 7 -19 23 0 23 8 0 12
-4 9 -8 -2 -4 0 -10 6 -14 5 -3 10 3 10 15 0 12 4 19 9 16 5 -3 15 2 22 11 12
15 12 16 -6 9 -11 -5 -27 -10 -35 -13 -18 -5 -49 39 -32 45 7 2 9 18 6 43 -4
25 -2 39 5 39 6 0 11 4 11 8 0 5 -7 9 -15 9 -8 0 -12 -4 -9 -9 5 -7 -10 -12
-28 -9 -14 2 -8 -10 12 -27 19 -17 19 -17 -5 -45 -14 -15 -25 -23 -25 -18 0
17 4 26 12 24 3 -1 9 4 11 12 4 10 -1 13 -21 11 -30 -4 -41 -24 -21 -37 12 -8
12 -11 -1 -19 -21 -14 -30 -12 -24 4 3 8 -2 26 -11 39 -16 24 -15 26 5 37 11
6 26 8 33 4 6 -4 9 -3 4 1 -9 11 70 58 83 50 6 -4 9 -1 8 5 -4 14 182 121 195
113 6 -3 7 -1 4 4 -8 13 20 26 36 16 7 -3 9 -3 5 2 -5 5 9 19 30 33 118 78
159 174 123 284 -21 64 -94 117 -431 313 -179 104 -496 288 -706 410 -493 288
-487 285 -552 285 -90 0 -158 -41 -207 -125 -22 -39 -23 -48 -29 -375 -3 -184
-6 -347 -6 -362 0 -23 -5 -28 -24 -28 -18 0 -23 5 -21 18 2 9 4 19 4 21 1 3 8
-4 16 -15 14 -18 14 -18 15 9 0 16 -4 26 -9 23 -5 -3 -11 1 -15 9 -8 22 -29
18 -23 -4 2 -11 -3 -25 -14 -35 -11 -9 -16 -22 -12 -32 4 -12 3 -15 -5 -10 -7
4 -15 1 -18 -8 -4 -9 -14 -14 -27 -12 -12 3 -25 5 -29 5 -5 1 -8 9 -7 19 0 10
3 12 6 5 2 -7 9 -13 15 -13 6 0 8 7 4 15 -3 9 0 15 8 15 9 0 12 -8 9 -22 -3
-18 -2 -20 6 -8 5 9 11 22 13 30 2 8 11 23 21 34 19 22 22 36 7 36 -5 0 -10 7
-10 15 0 8 -4 15 -10 15 -5 0 -7 -7 -4 -15 4 -10 0 -15 -11 -15 -9 0 -13 5
-10 10 3 6 1 10 -5 10 -8 0 -8 6 0 21 7 11 9 23 7 26 -3 2 -8 -5 -12 -16 -3
-12 -11 -18 -17 -15 -12 8 -29 -16 -21 -30 4 -5 9 -1 13 9 4 11 9 14 13 8 4
-6 -3 -19 -15 -29 -12 -11 -19 -14 -15 -9 3 6 -3 16 -14 23 -11 7 -19 8 -19 2
0 -5 5 -10 10 -10 6 0 10 -6 10 -14 0 -8 6 -17 13 -19 9 -4 9 -6 -1 -6 -7 -1
-10 -6 -7 -11 4 -6 12 -7 18 -3 7 4 15 8 20 9 4 1 10 2 13 3 4 0 1 8 -6 16
-16 19 -5 32 13 16 8 -6 23 -8 33 -5 15 5 14 2 -6 -18 -14 -14 -29 -25 -35
-26 -5 -1 -22 -4 -37 -8 -19 -4 -28 -2 -28 5 0 7 -5 9 -10 6 -6 -3 -10 1 -10
9 0 9 5 16 11 16 5 0 7 5 4 10 -12 19 -36 11 -35 -12 4 -39 0 -43 -15 -21 -8
12 -12 30 -9 40 5 15 4 15 -7 -2 -23 -37 -38 -47 -60 -40 -15 5 -19 4 -15 -4
4 -6 0 -11 -9 -11 -13 0 -12 5 7 30 14 20 28 28 39 25 10 -3 20 -1 23 4 8 12
-21 22 -75 25 -28 2 -37 0 -30 -7 13 -13 14 -27 2 -27 -14 0 -19 31 -10 57 12
32 -10 46 -46 27 -15 -8 -33 -13 -39 -10 -6 2 -4 5 5 5 9 1 19 8 23 16 4 10
14 14 31 11 14 -3 25 0 25 5 0 6 4 8 10 4 5 -3 7 -12 3 -20 -7 -20 0 -19 26 4
13 12 18 22 12 26 -6 3 -15 20 -21 38 l-10 32 4 -38 c4 -27 2 -35 -7 -30 -14
9 -59 5 -70 -7 -11 -10 -47 -1 -47 11 0 5 -5 9 -12 9 -6 0 -4 -7 5 -18 24 -26
21 -33 -8 -22 -20 7 -25 6 -25 -5 0 -8 5 -15 10 -15 6 0 10 -7 10 -15 0 -12
-3 -12 -18 3 -21 20 -22 33 -2 56 11 14 11 19 0 29 -10 9 -11 9 -6 0 4 -7 2
-13 -4 -13 -6 0 -8 -4 -5 -10 3 -5 1 -10 -4 -10 -6 0 -11 -7 -11 -16 0 -14 -3
-14 -15 -4 -12 10 -15 10 -15 -3 0 -9 8 -18 18 -20 13 -4 11 -5 -5 -6 -13 0
-23 5 -23 12 0 7 -9 13 -21 14 -25 2 -51 22 -43 34 8 14 24 11 19 -3 -3 -8 5
-14 21 -15 15 0 23 2 17 5 -10 7 -33 46 -33 56 0 3 3 5 8 4 4 0 18 4 32 10
l25 11 -25 -3 c-42 -5 -59 -16 -52 -34 5 -15 4 -15 -11 -3 -12 9 -17 10 -17 2
0 -7 -5 -9 -11 -5 -8 4 -8 9 0 17 14 14 14 37 0 37 -5 0 -7 -4 -4 -10 3 -5 2
-10 -3 -10 -5 0 -12 -9 -15 -20 -6 -25 -24 -26 -32 -1 -7 22 -55 17 -55 -5 0
-17 27 -18 33 -1 2 6 7 9 11 6 14 -13 -7 -40 -28 -37 -16 2 -21 11 -23 33 -2
49 -3 51 -12 36 -8 -12 -12 -12 -25 -2 -23 19 -8 34 25 27 26 -5 28 -4 20 13
-6 10 -8 21 -5 23 3 3 -2 8 -9 11 -11 4 -13 0 -9 -15 4 -18 2 -20 -16 -16 -12
4 -22 3 -22 -1 0 -4 -9 -7 -20 -7 -25 0 -26 13 -2 19 13 4 11 5 -5 6 -13 0
-23 6 -23 12 0 5 4 8 9 5 5 -3 11 1 15 9 3 8 10 15 17 15 6 0 9 -7 5 -15 -3
-9 3 -19 15 -26 19 -10 20 -9 9 10 -9 18 -7 22 15 31 15 6 24 14 20 20 -7 11
-35 2 -35 -11 0 -5 -5 -9 -11 -9 -5 0 -7 5 -3 12 4 6 3 8 -4 4 -6 -3 -13 -2
-17 4 -3 5 1 10 9 10 9 0 16 5 16 10 0 6 -4 10 -9 10 -5 0 -18 3 -28 6 -13 4
-15 3 -4 -4 11 -8 11 -14 1 -33 -13 -25 -29 -39 -43 -39 -5 0 -5 5 -1 12 5 7
2 9 -8 5 -22 -8 -30 3 -15 21 10 13 9 14 -3 7 -8 -5 -26 -11 -40 -12 -20 -3
-22 -1 -10 7 12 8 12 10 1 10 -10 0 -11 3 -2 14 12 14 0 32 -13 19 -9 -10 -7
-56 4 -73 8 -13 11 -13 19 -1 14 21 81 -23 80 -52 -1 -17 -2 -18 -6 -4 -2 9
-12 17 -21 17 -9 0 -28 3 -41 7 -16 4 -22 3 -17 -5 3 -6 20 -13 36 -17 17 -4
28 -11 24 -16 -3 -5 0 -9 5 -9 6 0 10 -6 8 -12 -1 -7 4 -12 11 -11 6 2 12 -2
12 -7 0 -6 -4 -10 -10 -10 -5 0 -10 -9 -10 -19 0 -14 -5 -18 -20 -14 -11 3
-20 9 -20 14 0 5 6 6 14 3 7 -3 16 2 19 10 4 9 3 16 -2 16 -5 0 -11 10 -14 21
-5 17 -11 20 -32 17 -14 -3 -28 -1 -32 5 -3 6 -1 7 5 3 15 -9 15 -4 -1 26 -12
24 -35 26 -49 4 -5 -8 -8 -7 -8 2 0 7 10 16 22 21 13 5 17 10 10 15 -6 4 -9
13 -5 21 3 8 0 15 -6 15 -6 0 -11 -6 -11 -14 0 -7 -7 -19 -15 -26 -12 -10 -15
-9 -15 4 0 10 5 14 10 11 6 -3 10 1 10 10 0 11 -5 15 -15 11 -32 -12 -13 16
20 30 42 17 45 26 6 18 -18 -4 -32 -1 -36 7 -6 9 -3 11 8 6 10 -3 17 -2 17 3
0 5 8 11 18 13 9 2 2 4 -15 3 -34 -1 -53 -24 -31 -38 9 -6 10 -10 2 -15 -6 -5
-15 -18 -19 -31 -7 -23 -30 -26 -30 -4 0 19 -15 26 -16 6 -1 -10 -1 -22 0 -26
0 -5 -4 -8 -10 -8 -6 0 -8 9 -3 22 6 20 5 21 -10 9 -20 -17 -29 -10 -20 13 4
9 13 15 20 12 8 -3 14 1 14 8 0 23 -11 46 -22 46 -6 0 -7 -7 -4 -16 6 -15 4
-15 -10 -3 -10 8 -12 15 -5 17 6 2 8 8 5 13 -3 6 -12 5 -22 -3 -12 -10 -14
-10 -8 0 4 6 2 12 -3 12 -17 0 -13 -11 11 -37 17 -18 19 -26 10 -32 -7 -4 -10
-14 -7 -22 3 -8 -4 -20 -15 -27 -12 -7 -20 -8 -20 -2 0 5 5 10 10 10 17 0 11
28 -7 40 -15 9 -14 10 7 5 25 -6 25 -6 5 12 -29 25 -28 56 0 69 20 10 23 9 18
-5 -5 -13 -3 -14 8 -3 14 13 30 16 27 5 -5 -14 30 -55 37 -44 3 6 2 11 -4 11
-5 0 -13 10 -17 22 -10 32 -26 46 -49 40 -18 -5 -18 -4 -6 11 9 11 10 17 2 17
-6 0 -11 -4 -11 -8 0 -12 -74 -10 -83 2 -6 7 -7 4 -4 -6 3 -9 -1 -22 -9 -29
-10 -8 -11 -16 -5 -22 5 -5 7 -17 4 -26 -4 -13 -3 -14 5 -1 7 9 7 18 1 26 -18
22 48 53 77 36 15 -9 15 -10 -4 -16 -12 -4 -22 -13 -22 -21 0 -8 -9 -17 -20
-20 -11 -3 -20 -11 -20 -16 0 -6 7 -6 18 0 15 8 18 6 17 -9 -1 -10 -6 -25 -13
-32 -9 -12 -8 -14 6 -14 9 1 18 -3 20 -9 1 -5 -9 -10 -23 -10 -14 -1 -25 3
-25 8 0 5 -9 7 -21 4 -13 -3 -19 -1 -16 6 2 7 12 11 22 9 10 -2 14 1 10 8 -3
6 -1 9 6 8 6 -2 13 2 15 7 2 6 -11 10 -29 9 -56 -2 -60 -3 -54 -23 3 -12 0
-18 -7 -15 -14 6 -16 43 -1 41 9 -2 10 3 7 36 -1 8 -12 19 -24 25 -13 6 -17
11 -10 11 6 1 12 8 12 17 0 12 -6 15 -25 10 -19 -5 -23 -3 -19 9 4 10 0 15
-10 15 -9 0 -16 4 -16 10 0 6 9 6 26 0 20 -8 25 -7 22 2 -7 22 -46 21 -57 0
-8 -15 -7 -21 4 -26 23 -8 18 -28 -5 -21 -11 4 -20 2 -20 -4 0 -6 7 -11 15
-11 17 0 19 -18 5 -40 -8 -12 -10 -11 -10 8 0 12 -6 22 -13 22 -7 0 -13 9 -13
20 0 11 4 20 8 20 4 0 8 5 8 12 0 6 -8 4 -19 -6 -11 -10 -17 -25 -14 -37 3
-11 0 -19 -7 -19 -7 0 -10 7 -6 15 3 8 1 15 -4 15 -6 0 -11 -118 -13 -297 -2
-164 -3 -80 -2 187 l1 485 27 99 c84 314 317 569 616 677 42 16 69 28 61 28
-8 0 -37 -8 -65 -18z m1307 -840 c62 -33 475 -272 1276 -739 101 -59 199 -120
219 -136 67 -55 93 -166 57 -242 -22 -46 -86 -102 -169 -149 -38 -21 -369
-212 -735 -425 -366 -213 -680 -392 -699 -398 -49 -17 -110 -14 -156 7 -51 23
-111 89 -125 138 -8 27 -10 302 -8 940 l3 901 30 44 c39 56 119 98 186 98 37
0 66 -9 121 -39z m-1832 -371 c0 -5 -4 -10 -10 -10 -5 0 -10 5 -10 10 0 6 5
10 10 10 6 0 10 -4 10 -10z m60 -2 c0 -15 -18 -17 -36 -4 -17 13 -17 14 9 13
15 -1 27 -5 27 -9z m-100 -30 c0 -7 5 -6 15 2 8 7 15 9 15 5 0 -8 -31 -34 -42
-35 -3 0 -4 9 -1 20 4 14 0 20 -11 20 -9 0 -16 5 -16 10 0 7 6 7 20 0 11 -6
20 -16 20 -22z m67 -4 c-3 -3 -12 -4 -19 -1 -8 3 -5 6 6 6 11 1 17 -2 13 -5z
m68 -104 c3 -13 -2 -20 -12 -20 -12 0 -13 3 -4 14 9 10 8 16 -4 26 -8 7 -12
17 -9 22 8 12 23 -11 29 -42z m252 4 c-3 -3 -12 -4 -19 -1 -8 3 -5 6 6 6 11 1
17 -2 13 -5z m-214 -19 c-3 -9 -8 -14 -10 -11 -3 3 -2 9 2 15 9 16 15 13 8 -4z
m102 8 c-11 -3 -23 -10 -26 -15 -3 -5 -9 -3 -12 6 -5 13 0 16 26 15 21 -1 25
-3 12 -6z m-215 -13 c0 -5 -2 -10 -4 -10 -3 0 -8 5 -11 10 -3 6 -1 10 4 10 6
0 11 -4 11 -10z m320 -15 c-7 -8 -20 -15 -29 -14 -13 0 -14 1 -1 6 8 3 19 12
23 20 5 8 11 12 14 9 3 -3 0 -12 -7 -21z m90 15 c0 -5 -2 -10 -4 -10 -3 0 -8
5 -11 10 -3 6 -1 10 4 10 6 0 11 -4 11 -10z m-166 -12 c-3 -4 -11 -5 -19 -1
-21 7 -19 12 4 10 11 0 18 -5 15 -9z m113 -8 c-1 -21 -10 -18 -13 5 -1 8 2 15
6 15 5 0 8 -9 7 -20z m42 -18 c0 -11 -2 -12 -6 -4 -2 6 -9 10 -14 6 -10 -6
-12 9 -3 19 10 10 24 -2 23 -21z m-184 -20 c-8 -8 -25 10 -25 26 0 13 2 13 14
-4 8 -10 13 -21 11 -22z m48 13 c-7 -21 -13 -19 -13 6 0 11 4 18 10 14 5 -3 7
-12 3 -20z m312 -3 c2 -12 -1 -25 -7 -28 -7 -4 -8 -2 -4 4 4 7 3 12 -3 12 -5
0 -8 8 -6 18 2 9 4 19 4 21 2 10 12 -8 16 -27z m-240 9 c3 -5 1 -12 -5 -16 -5
-3 -10 1 -10 9 0 18 6 21 15 7z m95 -21 c0 -5 -4 -10 -10 -10 -5 0 -10 5 -10
10 0 6 5 10 10 10 6 0 10 -4 10 -10z m172 -62 c-7 -7 -12 -8 -12 -2 0 14 12
26 19 19 2 -3 -1 -11 -7 -17z m144 1 c1 -5 2 -10 4 -11 7 -10 6 -38 -2 -38 -5
0 -8 6 -5 13 2 6 -3 17 -11 23 -9 6 -12 16 -8 23 8 12 20 7 22 -10z m-556 2
c0 -5 -7 -11 -14 -14 -10 -4 -13 -1 -9 9 6 15 23 19 23 5z m287 -7 c-3 -3 -12
-4 -19 -1 -8 3 -5 6 6 6 11 1 17 -2 13 -5z m89 -3 c-4 -5 -1 -12 4 -14 6 -3 5
-4 -2 -3 -15 3 -23 26 -8 26 6 0 9 -4 6 -9z m94 -7 c0 -8 -19 -13 -24 -6 -3 5
1 9 9 9 8 0 15 -2 15 -3z m-185 -13 c3 -5 2 -12 -3 -15 -5 -3 -9 1 -9 9 0 17
3 19 12 6z m246 -42 c-9 -23 -12 -23 -15 4 -2 11 15 29 21 23 2 -2 -1 -14 -6
-27z m89 26 c0 -2 -10 -9 -22 -15 -22 -11 -22 -10 -4 4 21 17 26 19 26 11z
m214 -32 c-7 -28 -44 -73 -44 -54 0 6 7 14 16 19 20 11 10 34 -11 25 -25 -9
-16 6 13 21 15 8 28 15 30 16 1 0 -1 -12 -4 -27z m-349 -3 c-3 -5 -12 -10 -18
-10 -7 0 -6 4 3 10 19 12 23 12 15 0z m68 -5 c-3 -9 -8 -14 -10 -11 -3 3 -2 9
2 15 9 16 15 13 8 -4z m167 5 c0 -5 -5 -10 -11 -10 -5 0 -7 5 -4 10 3 6 8 10
11 10 2 0 4 -4 4 -10z m-313 -22 c-3 -8 -6 -5 -6 6 -1 11 2 17 5 13 3 -3 4
-12 1 -19z m278 12 c-3 -5 -12 -10 -18 -10 -7 0 -6 4 3 10 19 12 23 12 15 0z
m-380 -10 c3 -6 -1 -7 -9 -4 -18 7 -21 14 -7 14 6 0 13 -4 16 -10z m425 -22
c22 -24 28 -47 7 -29 -8 6 -18 7 -22 3 -5 -4 -5 -2 -2 4 4 7 -3 14 -16 18 -18
5 -20 8 -7 16 19 12 16 13 40 -12z m-190 2 c0 -5 -2 -10 -4 -10 -3 0 -8 5 -11
10 -3 6 -1 10 4 10 6 0 11 -4 11 -10z m351 -29 c-14 -11 -20 -23 -15 -34 3 -9
2 -17 -3 -17 -5 0 -9 9 -10 21 -2 22 27 59 41 51 5 -3 -1 -12 -13 -21z m-411
-11 c0 -5 -2 -10 -4 -10 -3 0 -8 5 -11 10 -3 6 -1 10 4 10 6 0 11 -4 11 -10z
m328 -4 c-7 -8 -15 -12 -17 -11 -5 6 10 25 20 25 5 0 4 -6 -3 -14z m-121 -16
c-1 -22 -17 -28 -17 -7 0 12 9 27 16 27 2 0 2 -9 1 -20z m273 -16 c0 -2 -7 -4
-15 -4 -8 0 -15 4 -15 10 0 5 7 7 15 4 8 -4 15 -8 15 -10z m111 -17 c1 -7 1
-16 0 -20 -1 -5 3 -6 8 -3 5 4 12 2 16 -4 7 -11 -9 -13 -42 -4 -13 4 -20 10
-17 15 3 5 10 7 15 4 5 -4 9 -1 9 5 0 17 -29 24 -44 11 -11 -9 -16 -9 -22 1
-4 7 -4 10 1 6 4 -4 14 -1 22 7 16 17 52 4 54 -18z m140 6 c13 -16 12 -17 -3
-4 -10 7 -18 15 -18 17 0 8 8 3 21 -13z m49 -37 c0 -35 -4 -45 -20 -49 -24 -6
-28 24 -5 43 8 7 15 21 15 31 0 11 2 19 5 19 3 0 5 -20 5 -44z m-425 14 c-3
-5 -10 -10 -16 -10 -5 0 -9 5 -9 10 0 6 7 10 16 10 8 0 12 -4 9 -10z m342 4
c-9 -10 12 -46 24 -39 5 4 9 -1 9 -11 0 -13 -3 -14 -13 -5 -8 6 -18 7 -22 3
-5 -4 -5 -2 -1 5 3 6 2 14 -4 18 -14 9 -13 35 2 35 6 0 8 -3 5 -6z m-412 -24
c3 -5 1 -10 -4 -10 -6 0 -11 5 -11 10 0 6 2 10 4 10 3 0 8 -4 11 -10z m216
-13 c-10 -9 -11 -8 -5 6 3 10 9 15 12 12 3 -3 0 -11 -7 -18z m236 17 c-3 -3
-12 -4 -19 -1 -8 3 -5 6 6 6 11 1 17 -2 13 -5z m-167 -39 c-6 -8 -17 -11 -25
-9 -7 3 -15 -3 -18 -13 -3 -10 -4 -6 -4 10 1 28 11 35 22 17 4 -6 11 -8 16 -4
5 3 6 10 3 16 -4 7 -2 8 5 4 9 -6 9 -11 1 -21z m-423 0 c0 -8 -4 -12 -9 -9 -5
3 -6 10 -3 15 9 13 12 11 12 -6z m173 1 c0 -3 -4 -8 -10 -11 -5 -3 -10 -1 -10
4 0 6 5 11 10 11 6 0 10 -2 10 -4z m342 -3 c-6 -2 -10 -9 -6 -14 3 -5 0 -9 -6
-9 -7 0 -10 -7 -6 -15 3 -8 2 -15 -3 -15 -16 0 -21 13 -10 27 6 7 8 13 3 13
-5 0 -2 5 6 10 8 5 20 9 25 9 6 0 4 -3 -3 -6z m-382 -7 c0 -2 -7 -7 -16 -10
-8 -3 -12 -2 -9 4 6 10 25 14 25 6z m330 -6 c0 -5 -7 -10 -16 -10 -8 0 -12 5
-9 10 3 6 10 10 16 10 5 0 9 -4 9 -10z m-170 -10 c0 -5 -4 -10 -9 -10 -6 0
-13 5 -16 10 -3 6 1 10 9 10 9 0 16 -4 16 -10z m273 3 c-7 -2 -19 -2 -25 0 -7
3 -2 5 12 5 14 0 19 -2 13 -5z m-378 -12 c3 -5 0 -13 -6 -17 -7 -4 -9 -3 -5 4
3 5 0 13 -6 15 -9 4 -10 6 -1 6 6 1 14 -3 18 -8z m445 -21 c0 -16 -4 -30 -8
-30 -5 0 -7 14 -4 30 2 17 6 30 8 30 2 0 4 -13 4 -30z m-585 -1 c-10 -15 -25
-10 -19 6 4 8 10 12 15 9 5 -3 7 -10 4 -15z m-50 -9 c3 -5 1 -10 -4 -10 -6 0
-11 5 -11 10 0 6 2 10 4 10 3 0 8 -4 11 -10z m182 -6 c-3 -3 -12 -4 -19 -1 -8
3 -5 6 6 6 11 1 17 -2 13 -5z m226 -24 c-3 -12 -8 -19 -11 -16 -5 6 5 36 12
36 2 0 2 -9 -1 -20z m-1356 -142 c-2 -29 -3 -6 -3 52 0 58 1 81 3 53 2 -29 2
-77 0 -105z m0 -120 c-3 -8 -6 -5 -6 6 -1 11 2 17 5 13 3 -3 4 -12 1 -19z
m2963 -208 c-8 -5 -10 -10 -4 -10 6 0 11 -7 11 -15 0 -8 -6 -15 -13 -15 -8 0
-11 6 -8 15 5 11 1 14 -12 9 -18 -5 -18 -5 0 10 11 9 25 16 30 16 6 0 4 -5 -4
-10z m-36 -52 c-4 -6 -10 -6 -17 1 -7 7 -22 4 -48 -10 -52 -26 -50 -16 3 15
31 18 46 22 55 14 7 -5 10 -15 7 -20z m66 -24 c0 -2 -7 -4 -15 -4 -8 0 -15 4
-15 10 0 5 7 7 15 4 8 -4 15 -8 15 -10z m65 -2 c-4 -22 4 -37 25 -45 10 -4 8
-6 -7 -6 -25 -1 -51 54 -30 63 7 2 13 5 14 5 1 1 0 -7 -2 -17z m181 -28 c5
-19 9 -22 15 -13 6 10 10 9 15 -5 9 -24 -18 -70 -43 -73 -17 -2 -17 -2 0 3 12
4 15 10 9 17 -15 20 -21 57 -9 57 8 0 7 4 -1 12 -15 15 -16 28 -2 28 5 0 13
-12 16 -26z m-451 6 c-3 -5 -12 -10 -18 -10 -7 0 -6 4 3 10 19 12 23 12 15 0z
m107 -12 c-9 -9 -9 -15 1 -27 11 -14 10 -14 -6 -2 -13 10 -15 17 -6 27 6 8 14
14 17 14 3 0 1 -5 -6 -12z m64 -7 c0 -11 -5 -17 -13 -14 -10 4 -11 9 -2 19 15
18 15 18 15 -5z m-251 -27 c-26 -20 -55 -36 -55 -30 0 5 63 46 70 46 3 -1 -4
-8 -15 -16z m102 -9 c0 -8 -4 -12 -9 -9 -5 3 -6 10 -3 15 9 13 12 11 12 -6z
m173 1 c0 -3 -4 -8 -10 -11 -5 -3 -10 -1 -10 4 0 6 5 11 10 11 6 0 10 -2 10
-4z m153 -24 c-3 -12 -9 -22 -14 -22 -12 0 -11 7 3 30 15 24 19 21 11 -8z
m-493 -11 c0 -5 -9 -11 -21 -14 -16 -4 -18 -3 -8 9 13 16 29 19 29 5z m410 -1
c0 -5 -5 -10 -11 -10 -5 0 -7 5 -4 10 3 6 8 10 11 10 2 0 4 -4 4 -10z m230
-25 c11 -13 10 -14 -5 -9 -13 5 -16 4 -11 -4 4 -7 3 -12 -2 -12 -16 0 -21 12
-9 26 15 17 12 17 27 -1z m-49 -21 c22 -25 22 -26 3 -16 -12 6 -24 18 -28 27
-8 21 -3 19 25 -11z m-686 -4 c-3 -5 -12 -10 -18 -10 -7 0 -6 4 3 10 19 12 23
12 15 0z m476 -17 c13 -16 12 -17 -3 -4 -10 7 -18 15 -18 17 0 8 8 3 21 -13z
m291 -5 c-7 -7 -12 -8 -12 -2 0 14 12 26 19 19 2 -3 -1 -11 -7 -17z m228 -2
c0 -3 -4 -8 -10 -11 -5 -3 -10 -1 -10 4 0 6 5 11 10 11 6 0 10 -2 10 -4z
m-1060 -11 c0 -2 -10 -9 -22 -15 -22 -11 -22 -10 -4 4 21 17 26 19 26 11z
m624 -10 c-4 -8 -8 -15 -10 -15 -2 0 -4 7 -4 15 0 8 4 15 10 15 5 0 7 -7 4
-15z m252 1 c3 -8 4 -23 2 -33 -3 -13 -7 -9 -15 15 -12 31 1 48 13 18z m88 -2
c3 -8 1 -24 -4 -36 -9 -22 -9 -22 -9 3 -1 15 -8 29 -15 32 -10 4 -13 1 -9 -9
5 -14 3 -14 -15 -3 -13 8 -17 16 -11 20 19 11 58 7 63 -7z m-317 -16 c-3 -8
-6 -5 -6 6 -1 11 2 17 5 13 3 -3 4 -12 1 -19z m186 8 c4 -10 0 -12 -15 -8 -15
4 -17 7 -6 13 17 11 15 11 21 -5z m154 -8 c-3 -8 -6 -5 -6 6 -1 11 2 17 5 13
3 -3 4 -12 1 -19z m-447 -2 c0 -2 -7 -6 -15 -10 -8 -3 -15 -1 -15 4 0 6 7 10
15 10 8 0 15 -2 15 -4z m620 -6 c0 -5 -5 -10 -11 -10 -5 0 -7 5 -4 10 3 6 8
10 11 10 2 0 4 -4 4 -10z m-673 -22 c-3 -8 -6 -5 -6 6 -1 11 2 17 5 13 3 -3 4
-12 1 -19z m337 6 c3 -8 2 -12 -4 -9 -6 3 -10 10 -10 16 0 14 7 11 14 -7z
m283 1 c0 -8 -7 -17 -15 -20 -8 -3 -12 -12 -9 -20 4 -9 1 -12 -7 -9 -11 4 -11
12 -3 35 12 30 34 40 34 14z m-303 -11 c3 -8 2 -12 -4 -9 -6 3 -10 10 -10 16
0 14 7 11 14 -7z m59 1 c4 -8 2 -17 -3 -20 -6 -4 -10 3 -10 14 0 25 6 27 13 6z
m48 -28 c-11 -12 -21 -16 -21 -10 0 6 7 13 15 17 8 3 15 13 16 23 0 12 2 14 6
4 3 -7 -4 -23 -16 -34z m269 8 c0 -7 6 -15 13 -18 8 -3 6 -7 -6 -12 -22 -9
-29 -3 -32 29 -2 18 1 23 11 19 8 -3 14 -11 14 -18z m-193 -17 c-3 -8 -6 -5
-6 6 -1 11 2 17 5 13 3 -3 4 -12 1 -19z m147 -8 c1 -23 -2 -25 -28 -22 -28 5
-28 5 -7 16 17 10 19 14 9 25 -11 10 -9 12 6 9 13 -2 20 -12 20 -28z m-114 10
c0 -5 -2 -10 -4 -10 -3 0 -8 5 -11 10 -3 6 -1 10 4 10 6 0 11 -4 11 -10z m-69
-33 c-10 -9 -11 -8 -5 6 3 10 9 15 12 12 3 -3 0 -11 -7 -18z m100 -4 c-12 -20
-14 -14 -5 12 4 9 9 14 11 11 3 -2 0 -13 -6 -23z m-254 -15 c-3 -8 -6 -5 -6 6
-1 11 2 17 5 13 3 -3 4 -12 1 -19z m373 12 c0 -5 -5 -10 -11 -10 -5 0 -7 5 -4
10 3 6 8 10 11 10 2 0 4 -4 4 -10z m-180 -33 c11 -5 9 -6 -4 -4 -11 1 -21 9
-23 17 -3 10 -2 11 4 4 4 -6 15 -14 23 -17z m-133 -7 c1 -11 -2 -22 -8 -25 -5
-3 -6 1 -3 9 4 10 1 16 -7 16 -11 0 -11 3 1 10 8 5 15 10 15 10 1 0 1 -9 2
-20z m76 -6 c-6 -16 -16 -11 -19 11 -1 8 4 11 11 8 8 -2 11 -11 8 -19z m142 6
c3 -5 1 -10 -4 -10 -6 0 -11 5 -11 10 0 6 2 10 4 10 3 0 8 -4 11 -10z m-70
-20 c3 -5 1 -10 -4 -10 -6 0 -11 5 -11 10 0 6 2 10 4 10 3 0 8 -4 11 -10z
m235 -4 c0 -3 -4 -8 -10 -11 -5 -3 -10 -1 -10 4 0 6 5 11 10 11 6 0 10 -2 10
-4z m-35 -36 c-3 -5 -11 -10 -16 -10 -6 0 -7 5 -4 10 3 6 11 10 16 10 6 0 7
-4 4 -10z m-290 -10 c3 -6 -1 -7 -9 -4 -18 7 -21 14 -7 14 6 0 13 -4 16 -10z
m345 -28 c3 -3 -5 -2 -17 1 -17 4 -23 1 -23 -11 0 -11 -3 -13 -10 -6 -6 6 -8
18 -4 27 5 14 10 15 27 5 12 -6 24 -13 27 -16z m36 19 c-4 -5 -1 -11 6 -13 7
-3 9 -12 5 -22 -4 -9 -11 -14 -17 -11 -13 8 -13 55 1 55 5 0 8 -4 5 -9z m44 5
c0 -3 -4 -8 -10 -11 -5 -3 -10 -1 -10 4 0 6 5 11 10 11 6 0 10 -2 10 -4z
m-189 -33 c-12 -20 -14 -14 -5 12 4 9 9 14 11 11 3 -2 0 -13 -6 -23z m36 5
c-3 -8 -6 -5 -6 6 -1 11 2 17 5 13 3 -3 4 -12 1 -19z m148 -83 c-4 -37 -12
-40 -12 -5 0 17 4 30 8 30 4 0 6 -11 4 -25z m190 -7 c0 -25 15 -35 26 -18 8
12 9 11 7 -5 -2 -11 -11 -26 -20 -33 -22 -16 -24 -36 -3 -29 8 4 16 3 19 -1 2
-4 -6 -9 -19 -10 -14 -1 -26 5 -30 15 -5 15 -7 15 -15 3 -7 -11 -10 -11 -10
-2 0 7 14 19 31 26 19 8 27 16 20 20 -6 4 -15 5 -20 1 -6 -3 -8 5 -5 19 3 21
1 23 -18 18 -13 -3 -19 -1 -15 5 11 17 52 10 52 -9z m-250 2 c3 -5 -1 -10 -9
-10 -9 0 -16 5 -16 10 0 6 4 10 9 10 6 0 13 -4 16 -10z m100 -10 c-3 -5 -11
-10 -16 -10 -6 0 -7 5 -4 10 3 6 11 10 16 10 6 0 7 -4 4 -10z m-165 -14 c0 -3
-4 -8 -10 -11 -5 -3 -10 -1 -10 4 0 6 5 11 10 11 6 0 10 -2 10 -4z m92 -18
c-7 -7 -12 -8 -12 -2 0 14 12 26 19 19 2 -3 -1 -11 -7 -17z m-43 -2 c9 -11 6
-15 -16 -19 -25 -5 -26 -4 -10 8 14 10 15 14 5 18 -8 3 -8 6 -2 6 6 1 17 -5
23 -13z m211 -6 c0 -5 -7 -10 -16 -10 -8 0 -12 5 -9 10 3 6 10 10 16 10 5 0 9
-4 9 -10z m-266 -16 c5 -14 4 -15 -9 -4 -17 14 -19 20 -6 20 5 0 12 -7 15 -16z
m481 -14 c3 -5 1 -10 -4 -10 -6 0 -11 5 -11 10 0 6 2 10 4 10 3 0 8 -4 11 -10z
m-335 -10 c0 -5 -2 -10 -4 -10 -3 0 -8 5 -11 10 -3 6 -1 10 4 10 6 0 11 -4 11
-10z m154 -26 c3 -8 2 -12 -4 -9 -6 3 -10 10 -10 16 0 14 7 11 14 -7z m-191
-10 c9 -4 17 -10 17 -15 0 -14 -16 -11 -30 6 -7 8 -16 12 -21 9 -5 -3 -9 0 -9
6 0 7 6 9 13 6 6 -3 20 -9 30 -12z m287 6 c0 -5 -4 -10 -10 -10 -5 0 -10 5
-10 10 0 6 5 10 10 10 6 0 10 -4 10 -10z m198 -25 c1 -14 -3 -25 -8 -25 -6 0
-10 11 -10 25 0 14 4 25 8 25 4 0 9 -11 10 -25z m-318 5 c0 -5 -8 -10 -17 -10
-15 0 -16 2 -3 10 19 12 20 12 20 0z m230 -24 c0 -2 -9 -6 -19 -9 -14 -3 -19
0 -18 13 1 15 5 16 19 9 10 -5 18 -11 18 -13z m36 16 c6 -4 14 -16 17 -27 7
-19 6 -19 -10 1 -10 12 -25 24 -33 27 -13 5 -13 5 0 6 8 0 20 -3 26 -7z m-136
-33 c-8 -14 -7 -19 1 -19 7 0 10 -2 7 -5 -9 -10 -38 7 -38 22 0 8 5 11 10 8 6
-3 10 1 10 10 0 9 5 13 10 10 7 -4 7 -13 0 -26z m132 -13 c7 5 8 2 4 -5 -5 -7
-14 -10 -21 -7 -8 3 -16 0 -18 -7 -2 -7 -8 -9 -12 -4 -5 4 0 15 11 26 15 14
20 15 22 4 2 -7 8 -10 14 -7z m-100 -8 c-7 -7 -12 -8 -12 -2 0 14 12 26 19 19
2 -3 -1 -11 -7 -17z m190 13 c3 -1 5 -12 3 -26 -1 -14 2 -25 6 -25 5 0 9 -4 9
-9 0 -12 -49 -11 -57 2 -4 7 0 8 12 3 16 -6 16 -4 4 11 -9 11 -10 14 -1 9 7
-4 12 -1 12 8 0 9 -6 16 -14 16 -8 0 -17 4 -20 8 -4 7 5 8 46 3z m-324 -26
c-3 -3 -9 2 -12 12 -6 14 -5 15 5 6 7 -7 10 -15 7 -18z m-28 5 c0 -5 -2 -10
-4 -10 -3 0 -8 5 -11 10 -3 6 -1 10 4 10 6 0 11 -4 11 -10z m186 -16 c-14 -13
-20 -14 -29 -4 -8 9 -8 11 -1 7 7 -4 17 0 24 8 7 9 15 13 18 11 2 -3 -3 -13
-12 -22z m117 -5 c-8 -30 -21 -32 -15 -1 5 25 4 26 -14 12 -17 -14 -18 -14 -6
2 17 22 41 13 35 -13z m-319 -5 c3 -8 2 -12 -4 -9 -6 3 -10 10 -10 16 0 14 7
11 14 -7z m-29 -14 c3 -5 1 -10 -4 -10 -6 0 -11 5 -11 10 0 6 2 10 4 10 3 0 8
-4 11 -10z m305 0 c0 -5 -5 -10 -11 -10 -5 0 -7 5 -4 10 3 6 8 10 11 10 2 0 4
-4 4 -10z m-393 -22 c-3 -8 -6 -5 -6 6 -1 11 2 17 5 13 3 -3 4 -12 1 -19z
m448 2 c3 -5 1 -10 -4 -10 -6 0 -11 5 -11 10 0 6 2 10 4 10 3 0 8 -4 11 -10z
m70 -10 c8 -13 -5 -13 -25 0 -13 8 -13 10 2 10 9 0 20 -4 23 -10z m59 -16 c5
-12 2 -15 -10 -10 -8 3 -21 6 -27 6 -7 0 -6 4 3 10 21 14 27 12 34 -6z m136
-37 c0 -5 -7 -1 -16 8 -13 13 -19 13 -33 3 -14 -12 -14 -11 -3 4 8 10 10 23 6
30 -4 7 4 2 19 -12 15 -14 27 -29 27 -33z m-234 31 c5 -7 3 -8 -5 -4 -7 5 -21
0 -32 -10 -21 -19 -26 -11 -6 11 15 17 33 19 43 3z m-156 -8 c8 -5 12 -11 10
-14 -3 -2 -14 2 -24 10 -22 15 -10 19 14 4z m205 -10 c-3 -5 -13 -10 -21 -10
-8 0 -14 -5 -14 -12 0 -6 -3 -8 -7 -4 -5 4 1 14 11 22 23 16 40 19 31 4z
m-115 -26 c0 -8 -5 -12 -10 -9 -6 4 -8 11 -5 16 9 14 15 11 15 -7z m220 10 c0
-11 -34 -33 -50 -33 -8 0 -5 4 8 9 12 5 22 14 22 20 0 5 5 10 10 10 6 0 10 -3
10 -6z m-185 -14 c-3 -5 -1 -10 6 -10 7 0 10 -2 7 -5 -8 -9 -38 6 -32 16 3 5
10 9 15 9 6 0 7 -4 4 -10z m104 -3 c13 5 14 3 4 -7 -10 -11 -15 -11 -28 0 -12
10 -15 10 -15 0 0 -8 -3 -11 -6 -7 -3 3 -3 11 1 17 5 8 11 8 17 2 6 -6 18 -8
27 -5z m108 6 c-4 -3 -2 -12 4 -19 8 -10 5 -11 -13 -7 -22 4 -23 4 -3 -11 18
-15 18 -17 2 -33 -11 -11 -17 -13 -17 -5 0 7 5 12 11 12 5 0 7 5 4 10 -5 8
-12 7 -23 -2 -15 -12 -16 -11 -3 5 16 21 -1 23 -19 2 -10 -12 -8 -18 11 -35
13 -10 19 -19 13 -20 -6 0 -19 9 -29 20 -10 11 -21 17 -26 15 -4 -3 -10 -1
-14 5 -3 5 1 10 9 10 9 0 16 5 16 10 0 6 5 10 11 10 6 0 22 9 36 20 24 19 44
28 30 13z m-322 -31 c-3 -3 -11 0 -18 7 -9 10 -8 11 6 5 10 -3 15 -9 12 -12z
m142 -4 c-3 -8 -6 -5 -6 6 -1 11 2 17 5 13 3 -3 4 -12 1 -19z m228 12 c-3 -5
-10 -10 -16 -10 -5 0 -9 5 -9 10 0 6 7 10 16 10 8 0 12 -4 9 -10z m45 -10 c0
-17 -26 -17 -27 1 -1 12 3 16 13 12 8 -3 14 -9 14 -13z m-63 -32 c-3 -8 -6 -5
-6 6 -1 11 2 17 5 13 3 -3 4 -12 1 -19z m-312 -37 c-6 -5 -25 10 -25 20 0 5 6
4 14 -3 8 -7 12 -15 11 -17z m200 9 c-3 -5 -12 -10 -18 -10 -7 0 -6 4 3 10 19
12 23 12 15 0z m105 0 c0 -5 -2 -10 -4 -10 -3 0 -8 5 -11 10 -3 6 -1 10 4 10
6 0 11 -4 11 -10z m-155 -20 c-3 -5 3 -14 12 -20 15 -9 14 -10 -7 -4 -28 7
-55 28 -30 22 8 -2 14 3 12 10 -1 8 2 11 8 7 6 -3 8 -10 5 -15z m75 -30 c0 -5
-4 -10 -10 -10 -5 0 -10 5 -10 10 0 6 5 10 10 10 6 0 10 -4 10 -10z m45 -11
c-3 -4 -12 -6 -20 -3 -8 4 -13 10 -10 15 3 4 12 6 20 3 8 -4 13 -10 10 -15z
m149 0 c-25 -28 -106 -87 -124 -91 -8 -2 -21 -10 -28 -18 -11 -13 -11 -11 -2
7 6 13 14 22 18 22 19 -3 33 2 27 10 -6 11 29 34 38 25 3 -3 12 3 19 15 7 12
17 21 21 21 5 0 15 7 23 15 23 23 30 18 8 -6z m-254 -11 c0 -11 -12 -10 -30 2
-12 7 -10 9 8 7 12 0 22 -5 22 -9z m170 -20 c0 -4 -4 -8 -9 -8 -6 0 -12 4 -15
8 -3 5 1 9 9 9 8 0 15 -4 15 -9z m-86 -39 c-15 -16 -30 -26 -33 -23 -3 3 6 15
22 26 15 11 24 25 21 30 -5 7 -2 8 5 3 9 -5 5 -15 -15 -36z m-19 21 c3 -5 1
-10 -4 -10 -6 0 -11 5 -11 10 0 6 2 10 4 10 3 0 8 -4 11 -10z m-30 -30 c-3 -5
-12 -10 -18 -10 -7 0 -6 4 3 10 19 12 23 12 15 0z m-30 -30 c-3 -5 -12 -10
-18 -10 -7 0 -6 4 3 10 19 12 23 12 15 0z m75 -14 c0 -2 -7 -7 -16 -10 -8 -3
-12 -2 -9 4 6 10 25 14 25 6z m-40 -20 c0 -2 -32 -17 -70 -32 -52 -20 -74 -24
-82 -16 -8 8 -6 10 8 7 10 -3 44 6 74 19 56 25 70 29 70 22z m-247 -83 c-7 -2
-19 -2 -25 0 -7 3 -2 5 12 5 14 0 19 -2 13 -5z m-60 -10 c-7 -2 -21 -2 -30 0
-10 3 -4 5 12 5 17 0 24 -2 18 -5z"/>
<path d="M4196 6305 c-3 -8 -1 -15 4 -15 6 0 10 7 10 15 0 8 -2 15 -4 15 -2 0
-6 -7 -10 -15z"/>
<path d="M5870 5570 c0 -5 7 -10 15 -10 8 0 15 5 15 10 0 6 -7 10 -15 10 -8 0
-15 -4 -15 -10z"/>
<path d="M7581 7374 c0 -11 3 -14 6 -6 3 7 2 16 -1 19 -3 4 -6 -2 -5 -13z"/>
<path d="M7602 7270 c0 -14 2 -19 5 -12 2 6 2 18 0 25 -3 6 -5 1 -5 -13z"/>
<path d="M7612 7110 c0 -14 2 -19 5 -12 2 6 2 18 0 25 -3 6 -5 1 -5 -13z"/>
<path d="M2884 7055 c-3 -8 -4 -20 -2 -27 3 -7 7 -1 10 15 6 29 1 36 -8 12z"/>
<path d="M2960 7030 c-9 -6 -10 -10 -3 -10 6 0 15 5 18 10 8 12 4 12 -15 0z"/>
<path d="M3060 7030 c0 -5 5 -10 11 -10 5 0 7 5 4 10 -3 6 -8 10 -11 10 -2 0
-4 -4 -4 -10z"/>
<path d="M2647 7023 c-4 -3 -7 -31 -7 -62 0 -38 3 -51 9 -41 6 8 7 27 4 44 -4
21 -3 27 6 22 6 -4 9 -11 6 -16 -3 -5 -1 -11 4 -14 18 -12 19 22 1 42 -10 11
-16 23 -13 26 4 3 4 6 1 6 -2 0 -8 -3 -11 -7z"/>
<path d="M2780 7010 c0 -5 5 -10 11 -10 5 0 7 5 4 10 -3 6 -8 10 -11 10 -2 0
-4 -4 -4 -10z"/>
<path d="M2840 6993 c0 -14 3 -23 7 -19 10 10 11 46 1 46 -4 0 -8 -12 -8 -27z"/>
<path d="M2735 6999 c-9 -14 -2 -20 14 -10 8 6 9 11 3 15 -6 3 -14 1 -17 -5z"/>
<path d="M2816 6987 c3 -10 9 -15 12 -12 3 3 0 11 -7 18 -10 9 -11 8 -5 -6z"/>
<path d="M2910 6969 c0 -5 5 -7 10 -4 6 3 10 8 10 11 0 2 -4 4 -10 4 -5 0 -10
-5 -10 -11z"/>
<path d="M3045 6970 c-3 -5 1 -10 10 -10 9 0 13 5 10 10 -3 6 -8 10 -10 10 -2
0 -7 -4 -10 -10z"/>
<path d="M2958 6963 c7 -3 16 -2 19 1 4 3 -2 6 -13 5 -11 0 -14 -3 -6 -6z"/>
<path d="M3165 6960 c3 -5 10 -10 16 -10 5 0 9 5 9 10 0 6 -7 10 -16 10 -8 0
-12 -4 -9 -10z"/>
<path d="M2825 6950 c3 -5 8 -10 11 -10 2 0 4 5 4 10 0 6 -5 10 -11 10 -5 0
-7 -4 -4 -10z"/>
<path d="M3005 6950 c-3 -6 1 -7 9 -4 18 7 21 14 7 14 -6 0 -13 -4 -16 -10z"/>
<path d="M3118 6953 c7 -3 16 -2 19 1 4 3 -2 6 -13 5 -11 0 -14 -3 -6 -6z"/>
<path d="M2940 6940 c0 -5 5 -10 11 -10 5 0 7 5 4 10 -3 6 -8 10 -11 10 -2 0
-4 -4 -4 -10z"/>
<path d="M3300 6940 c0 -5 5 -10 10 -10 6 0 10 5 10 10 0 6 -4 10 -10 10 -5 0
-10 -4 -10 -10z"/>
<path d="M3065 6900 c11 -14 21 -27 22 -29 1 -2 1 6 0 17 0 12 -3 19 -6 17 -2
-3 -11 1 -20 7 -10 8 -8 3 4 -12z"/>
<path d="M3163 6896 c2 -6 11 -10 21 -8 16 3 23 -22 9 -31 -5 -2 -2 -2 5 -1 6
2 12 -4 12 -13 0 -9 3 -14 6 -10 4 3 2 19 -4 36 -8 22 -7 31 1 34 7 2 -3 4
-21 4 -19 0 -31 -5 -29 -11z"/>
<path d="M3560 6900 c-9 -6 -10 -10 -3 -10 6 0 15 5 18 10 8 12 4 12 -15 0z"/>
<path d="M2810 6889 c0 -5 5 -9 10 -9 6 0 10 -9 10 -19 0 -25 16 -36 24 -16 3
8 1 17 -5 20 -5 4 -7 10 -4 15 3 4 -4 10 -15 13 -11 3 -20 1 -20 -4z"/>
<path d="M3430 6886 c0 -3 9 -10 20 -16 11 -6 20 -8 20 -6 0 3 -9 10 -20 16
-11 6 -20 8 -20 6z"/>
<path d="M2900 6870 c0 -5 5 -10 10 -10 6 0 10 5 10 10 0 6 -4 10 -10 10 -5 0
-10 -4 -10 -10z"/>
<path d="M3105 6870 c-3 -6 1 -7 9 -4 18 7 21 14 7 14 -6 0 -13 -4 -16 -10z"/>
<path d="M3575 6860 c-3 -5 -1 -10 4 -10 6 0 11 5 11 10 0 6 -2 10 -4 10 -3 0
-8 -4 -11 -10z"/>
<path d="M3075 6850 c4 -6 0 -21 -8 -34 -14 -20 -13 -23 3 -33 15 -10 17 -7
17 33 0 24 -4 44 -9 44 -5 0 -6 -5 -3 -10z"/>
<path d="M3290 6825 c0 -8 -9 -19 -21 -25 -11 -7 -18 -14 -16 -17 3 -2 14 0
25 6 20 11 37 51 21 51 -5 0 -9 -7 -9 -15z"/>
<path d="M3379 6838 c-5 -18 -2 -55 4 -51 5 3 7 14 4 24 -3 10 0 20 7 23 7 3
7 5 -1 5 -7 1 -13 0 -14 -1z"/>
<path d="M3550 6830 c-9 -6 -10 -10 -3 -10 6 0 15 5 18 10 8 12 4 12 -15 0z"/>
<path d="M3225 6810 c4 -6 11 -8 16 -5 14 9 11 15 -7 15 -8 0 -12 -5 -9 -10z"/>
<path d="M3440 6809 c0 -5 5 -7 10 -4 6 3 10 8 10 11 0 2 -4 4 -10 4 -5 0 -10
-5 -10 -11z"/>
<path d="M3410 6799 c0 -5 5 -7 10 -4 6 3 10 8 10 11 0 2 -4 4 -10 4 -5 0 -10
-5 -10 -11z"/>
<path d="M3506 6795 c4 -8 7 -15 9 -15 2 0 5 7 9 15 3 9 0 15 -9 15 -9 0 -12
-6 -9 -15z"/>
<path d="M3140 6779 c0 -5 5 -7 10 -4 6 3 10 8 10 11 0 2 -4 4 -10 4 -5 0 -10
-5 -10 -11z"/>
<path d="M3270 6759 c0 -4 7 -9 15 -13 9 -3 15 0 15 8 0 7 -7 13 -15 13 -8 0
-15 -4 -15 -8z"/>
<path d="M3438 6751 c12 -10 22 -25 22 -34 0 -9 4 -18 9 -21 18 -11 3 45 -15
59 -28 21 -41 18 -16 -4z"/>
<path d="M3497 6756 c-4 -10 -1 -13 9 -9 15 6 19 23 5 23 -5 0 -11 -7 -14 -14z"/>
<path d="M3530 6760 c0 -5 5 -10 11 -10 5 0 7 5 4 10 -3 6 -8 10 -11 10 -2 0
-4 -4 -4 -10z"/>
<path d="M3424 6716 c0 -12 7 -23 14 -23 16 0 15 15 -2 32 -12 12 -14 11 -12
-9z"/>
<path d="M3700 6715 c0 -8 4 -15 10 -15 5 0 7 7 4 15 -4 8 -8 15 -10 15 -2 0
-4 -7 -4 -15z"/>
<path d="M3491 6703 c5 -30 -11 -65 -24 -55 -7 5 -21 6 -31 2 -14 -4 -16 -9
-8 -14 7 -4 17 -4 22 -1 6 4 17 1 25 -5 11 -9 16 -5 23 22 5 18 14 32 21 31
16 -4 14 0 -10 20 -20 17 -20 17 -18 0z"/>
<path d="M3608 6713 c-10 -2 -18 -8 -18 -13 0 -4 9 -6 20 -3 11 3 20 9 20 14
0 5 -1 8 -2 8 -2 -1 -11 -3 -20 -6z"/>
<path d="M3642 6705 c4 -5 3 -14 -3 -21 -7 -8 -7 -14 1 -19 5 -3 10 2 10 12 0
14 2 15 9 4 5 -8 6 -21 3 -30 -5 -14 -4 -14 11 1 22 22 22 23 -10 43 -16 10
-25 14 -21 10z"/>
<path d="M3745 6690 c-10 -11 -13 -20 -8 -20 6 0 14 7 17 16 4 10 14 14 26 11
11 -3 18 -1 14 4 -9 15 -30 10 -49 -11z"/>
<path d="M3918 6688 c6 -6 18 -8 28 -6 14 3 12 5 -9 10 -19 3 -25 2 -19 -4z"/>
<path d="M3541 6672 c-13 -24 0 -44 19 -32 10 7 11 10 3 10 -7 0 -13 5 -13 11
0 5 4 7 10 4 6 -3 7 1 4 9 -8 20 -11 20 -23 -2z"/>
<path d="M3610 6665 c0 -8 4 -15 10 -15 5 0 7 7 4 15 -4 8 -8 15 -10 15 -2 0
-4 -7 -4 -15z"/>
<path d="M3765 6669 c-4 -6 -5 -12 -2 -15 2 -3 7 2 10 11 7 17 1 20 -8 4z"/>
<path d="M3881 6656 c-15 -8 -20 -16 -12 -20 6 -4 11 -3 11 2 0 13 29 24 41
16 6 -4 6 -10 1 -17 -5 -7 -6 -21 -2 -32 6 -16 8 -14 12 15 7 48 -9 59 -51 36z"/>
<path d="M3698 6633 c5 -10 7 -25 4 -33 -5 -16 -4 -15 18 14 10 13 10 17 3 12
-8 -4 -13 -1 -13 8 0 9 -5 16 -10 16 -7 0 -7 -6 -2 -17z"/>
<path d="M3763 6614 c3 -3 1 -18 -4 -32 -10 -25 -10 -26 10 -8 20 18 19 46 -2
46 -6 0 -8 -3 -4 -6z"/>
<path d="M3814 6611 c4 -5 1 -12 -4 -14 -6 -3 -5 -4 2 -3 15 3 23 26 8 26 -6
0 -9 -4 -6 -9z"/>
<path d="M3864 6609 c-8 -14 15 -39 35 -38 9 0 11 3 4 5 -7 3 -10 11 -7 18 6
16 -23 29 -32 15z"/>
<path d="M4050 6609 c0 -5 -4 -8 -8 -5 -5 3 -9 -1 -9 -9 0 -11 4 -12 13 -4 6
5 17 8 24 7 7 -2 15 4 17 12 4 13 3 13 -6 0 -7 -10 -11 -11 -11 -2 0 6 -4 12
-10 12 -5 0 -10 -5 -10 -11z"/>
<path d="M3590 6600 c0 -5 6 -10 14 -10 8 0 17 -7 20 -16 4 -9 9 -14 13 -10 7
7 -25 46 -39 46 -4 0 -8 -4 -8 -10z"/>
<path d="M3638 6603 c7 -3 16 -2 19 1 4 3 -2 6 -13 5 -11 0 -14 -3 -6 -6z"/>
<path d="M3971 6575 c0 -5 6 -18 13 -27 13 -17 26 -14 26 5 0 6 -3 7 -7 4 -3
-4 -12 1 -19 11 -7 9 -13 13 -13 7z"/>
<path d="M3898 6547 c7 -8 8 -18 4 -23 -4 -5 -3 -6 2 -2 5 4 17 3 27 -3 14 -7
17 -6 13 4 -3 8 -17 20 -31 26 -22 10 -25 10 -15 -2z"/>
<path d="M4090 6549 c0 -5 9 -9 20 -9 11 0 20 2 20 4 0 2 -9 6 -20 9 -11 3
-20 1 -20 -4z"/>
<path d="M4051 6534 c0 -11 3 -14 6 -6 3 7 2 16 -1 19 -3 4 -6 -2 -5 -13z"/>
<path d="M4126 6529 c-11 -11 -17 -21 -14 -24 2 -3 13 4 23 15 24 26 16 33 -9
9z"/>
<path d="M4023 6527 c3 -9 1 -18 -6 -21 -7 -2 -4 -5 6 -5 19 -1 23 24 5 35 -7
5 -9 2 -5 -9z"/>
<path d="M3845 6510 c-11 -17 4 -29 37 -28 l31 1 -22 19 c-26 20 -37 22 -46 8z
m30 -10 c3 -5 1 -10 -4 -10 -6 0 -11 5 -11 10 0 6 2 10 4 10 3 0 8 -4 11 -10z"/>
<path d="M3965 6511 c3 -5 1 -12 -5 -16 -5 -3 -10 -11 -10 -17 0 -7 6 -6 15 2
10 9 15 9 15 1 0 -6 5 -11 10 -11 6 0 10 12 10 28 0 21 -2 24 -10 12 -6 -10
-10 -11 -10 -2 0 6 -5 12 -11 12 -5 0 -8 -4 -4 -9z"/>
<path d="M3890 6420 c0 -5 5 -10 10 -10 6 0 10 5 10 10 0 6 -4 10 -10 10 -5 0
-10 -4 -10 -10z"/>
<path d="M5836 5852 c-3 -5 1 -9 9 -9 8 0 12 4 9 9 -3 4 -7 8 -9 8 -2 0 -6 -4
-9 -8z"/>
<path d="M5950 5830 c0 -5 5 -10 11 -10 5 0 7 5 4 10 -3 6 -8 10 -11 10 -2 0
-4 -4 -4 -10z"/>
<path d="M5786 5815 c-4 -12 -1 -16 11 -13 18 3 21 20 5 26 -5 1 -12 -4 -16
-13z"/>
<path d="M5990 5790 c-9 -6 -10 -10 -3 -10 6 0 15 5 18 10 8 12 4 12 -15 0z"/>
<path d="M5794 5771 c0 -11 4 -17 8 -15 4 3 8 12 8 20 0 8 -4 14 -8 14 -4 0
-8 -9 -8 -19z"/>
<path d="M5754 5733 c0 -16 -2 -36 -5 -47 -3 -13 2 -20 19 -22 12 -2 22 1 22
6 0 6 -6 10 -14 10 -10 0 -13 7 -10 20 2 11 6 29 8 40 3 11 0 20 -7 20 -7 0
-12 -12 -13 -27z"/>
<path d="M6335 5750 c-3 -6 1 -7 9 -4 18 7 21 14 7 14 -6 0 -13 -4 -16 -10z"/>
<path d="M5815 5740 c-3 -5 -1 -10 4 -10 6 0 11 5 11 10 0 6 -2 10 -4 10 -3 0
-8 -4 -11 -10z"/>
<path d="M5631 5724 c0 -11 3 -14 6 -6 3 7 2 16 -1 19 -3 4 -6 -2 -5 -13z"/>
<path d="M6142 5714 c-7 -8 -8 -14 -3 -14 10 0 25 19 20 25 -2 1 -10 -3 -17
-11z"/>
<path d="M5786 5705 c4 -8 10 -15 16 -15 5 0 6 -4 3 -10 -3 -5 -1 -10 4 -10
14 0 14 6 1 31 -12 22 -32 26 -24 4z"/>
<path d="M5968 5694 c19 -25 27 -24 18 4 -4 10 -13 19 -20 19 -12 0 -11 -5 2
-23z"/>
<path d="M6025 5710 c3 -5 8 -10 11 -10 2 0 4 5 4 10 0 6 -5 10 -11 10 -5 0
-7 -4 -4 -10z"/>
<path d="M5836 5698 c3 -4 9 -8 15 -8 5 0 9 4 9 8 0 5 -7 9 -15 9 -8 0 -12 -4
-9 -9z"/>
<path d="M5880 5699 c0 -5 5 -7 10 -4 6 3 10 8 10 11 0 2 -4 4 -10 4 -5 0 -10
-5 -10 -11z"/>
<path d="M5922 5690 c0 -14 2 -19 5 -12 2 6 2 18 0 25 -3 6 -5 1 -5 -13z"/>
<path d="M6176 5675 c-13 -19 -13 -23 -2 -19 8 3 16 14 19 25 7 25 3 24 -17
-6z"/>
<path d="M6080 5670 c0 -5 5 -10 11 -10 5 0 7 5 4 10 -3 6 -8 10 -11 10 -2 0
-4 -4 -4 -10z"/>
<path d="M5950 5649 c8 -13 18 -18 35 -15 18 3 28 -1 35 -15 14 -25 25 -24 27
3 2 16 0 19 -6 9 -7 -10 -12 -8 -24 9 -8 12 -16 17 -18 11 -3 -7 -14 -6 -32 4
-26 13 -27 13 -17 -6z"/>
<path d="M6050 5659 c0 -5 5 -7 10 -4 6 3 10 8 10 11 0 2 -4 4 -10 4 -5 0 -10
-5 -10 -11z"/>
<path d="M5911 5651 c-8 -5 -9 -11 -3 -15 5 -3 12 1 16 9 6 17 6 18 -13 6z"/>
<path d="M6130 5630 c-9 -6 -10 -10 -3 -10 6 0 15 5 18 10 8 12 4 12 -15 0z"/>
<path d="M6390 5602 c0 -11 4 -23 9 -27 6 -3 8 4 6 16 -6 30 -15 37 -15 11z"/>
<path d="M6090 5570 c0 -5 5 -10 11 -10 5 0 7 5 4 10 -3 6 -8 10 -11 10 -2 0
-4 -4 -4 -10z"/>
<path d="M6257 5558 c-9 -8 -13 -18 -9 -25 5 -8 11 -3 19 13 13 28 12 28 -10
12z"/>
<path d="M6460 5539 c0 -5 5 -7 10 -4 6 3 10 8 10 11 0 2 -4 4 -10 4 -5 0 -10
-5 -10 -11z"/>
<path d="M6617 5533 c-4 -3 -7 -11 -7 -17 0 -6 5 -5 12 2 6 6 9 14 7 17 -3 3
-9 2 -12 -2z"/>
<path d="M6296 5514 c-4 -9 -4 -19 -1 -22 3 -3 5 0 5 6 0 7 7 12 15 12 8 0 15
5 15 10 0 16 -27 11 -34 -6z"/>
<path d="M6346 5515 c-3 -9 0 -15 9 -15 8 0 15 7 15 15 0 8 -4 15 -9 15 -5 0
-11 -7 -15 -15z"/>
<path d="M6200 5510 c-8 -5 -10 -10 -5 -10 6 0 17 5 25 10 8 5 11 10 5 10 -5
0 -17 -5 -25 -10z"/>
<path d="M6510 5505 c0 -8 2 -15 4 -15 2 0 6 7 10 15 3 8 1 15 -4 15 -6 0 -10
-7 -10 -15z"/>
<path d="M6620 5460 c0 -5 5 -10 11 -10 5 0 7 5 4 10 -3 6 -8 10 -11 10 -2 0
-4 -4 -4 -10z"/>
<path d="M6271 5456 c9 -10 59 -14 54 -5 -4 5 -18 9 -32 9 -15 0 -24 -2 -22
-4z"/>
<path d="M6490 5449 c0 -5 5 -7 10 -4 6 3 10 8 10 11 0 2 -4 4 -10 4 -5 0 -10
-5 -10 -11z"/>
<path d="M6785 5450 c-3 -5 -1 -10 4 -10 6 0 11 5 11 10 0 6 -2 10 -4 10 -3 0
-8 -4 -11 -10z"/>
<path d="M6455 5440 c3 -5 8 -10 11 -10 2 0 4 5 4 10 0 6 -5 10 -11 10 -5 0
-7 -4 -4 -10z"/>
<path d="M6515 5440 c-3 -5 1 -10 10 -10 9 0 13 5 10 10 -3 6 -8 10 -10 10 -2
0 -7 -4 -10 -10z"/>
<path d="M6725 5440 c3 -5 8 -10 11 -10 2 0 4 5 4 10 0 6 -5 10 -11 10 -5 0
-7 -4 -4 -10z"/>
<path d="M6415 5430 c3 -5 10 -10 16 -10 5 0 9 5 9 10 0 6 -7 10 -16 10 -8 0
-12 -4 -9 -10z"/>
<path d="M6560 5420 c20 -13 33 -13 25 0 -3 6 -14 10 -23 10 -15 0 -15 -2 -2
-10z"/>
<path d="M6680 5410 c-9 -6 -10 -10 -3 -10 6 0 15 5 18 10 8 12 4 12 -15 0z"/>
<path d="M6365 5390 c3 -5 8 -10 11 -10 2 0 4 5 4 10 0 6 -5 10 -11 10 -5 0
-7 -4 -4 -10z"/>
<path d="M6570 5361 c0 -6 4 -13 10 -16 6 -3 7 1 4 9 -7 18 -14 21 -14 7z"/>
<path d="M6523 5345 c-3 -9 -3 -19 1 -22 3 -4 6 -1 6 6 0 7 5 9 10 6 6 -3 10
1 10 9 0 21 -19 21 -27 1z"/>
<path d="M6640 5346 c0 -8 4 -17 9 -20 5 -4 7 3 4 14 -6 23 -13 26 -13 6z"/>
<path d="M6480 5342 c0 -5 7 -9 15 -9 8 0 15 4 15 9 0 4 -7 8 -15 8 -8 0 -15
-4 -15 -8z"/>
<path d="M6556 5318 c-9 -5 -16 -14 -16 -19 0 -6 7 -4 15 5 17 16 44 12 46 -8
1 -6 0 -26 -1 -45 -1 -18 2 -31 7 -28 6 4 9 16 8 29 -1 14 6 28 19 36 l21 13
-22 -4 c-14 -3 -23 1 -26 12 -5 19 -26 23 -51 9z"/>
<path d="M6885 5320 c-3 -6 1 -7 9 -4 18 7 21 14 7 14 -6 0 -13 -4 -16 -10z"/>
<path d="M6327 5306 c-8 -21 19 -28 35 -8 9 11 10 14 1 8 -7 -4 -13 -2 -13 3
0 16 -17 13 -23 -3z"/>
<path d="M6480 5303 c-13 -15 -12 -16 4 -10 12 5 26 1 39 -10 20 -18 20 -18 2
10 -20 31 -25 32 -45 10z"/>
<path d="M6775 5310 c-3 -5 -1 -10 4 -10 6 0 11 5 11 10 0 6 -2 10 -4 10 -3 0
-8 -4 -11 -10z"/>
<path d="M6707 5303 c-4 -6 3 -19 16 -29 12 -11 17 -12 11 -4 -6 8 -13 22 -16
30 -3 9 -7 10 -11 3z"/>
<path d="M6555 5270 c-3 -5 -2 -10 4 -10 5 0 13 5 16 10 3 6 2 10 -4 10 -5 0
-13 -4 -16 -10z"/>
<path d="M6884 5253 c3 -4 18 -8 32 -9 14 -2 24 0 20 3 -3 3 -17 7 -32 9 -14
1 -23 0 -20 -3z"/>
<path d="M6627 5215 c-3 -18 1 -29 14 -35 14 -8 17 -6 16 9 0 11 -5 17 -11 14
-5 -4 -7 1 -3 10 3 9 2 19 -2 22 -5 2 -11 -7 -14 -20z"/>
<path d="M6820 5215 c0 -8 2 -15 4 -15 2 0 6 7 10 15 3 8 1 15 -4 15 -6 0 -10
-7 -10 -15z"/>
<path d="M6895 5220 c3 -5 8 -10 11 -10 2 0 4 5 4 10 0 6 -5 10 -11 10 -5 0
-7 -4 -4 -10z"/>
<path d="M6965 5220 c-16 -7 -17 -9 -3 -9 9 -1 20 4 23 9 7 11 7 11 -20 0z"/>
<path d="M6730 5211 c0 -5 5 -13 10 -16 6 -3 10 -2 10 4 0 5 -4 13 -10 16 -5
3 -10 2 -10 -4z"/>
<path d="M6498 5204 c-9 -9 3 -42 18 -48 21 -8 27 11 7 23 -17 10 -17 10 2 11
17 0 17 2 5 10 -17 11 -24 12 -32 4z"/>
<path d="M6672 5200 c-1 -18 16 -60 17 -44 1 15 38 25 45 13 2 -5 3 -4 2 3 -2
8 -14 12 -29 10 -18 -2 -27 2 -30 15 -3 11 -5 13 -5 3z"/>
<path d="M6597 5194 c-3 -4 -3 -12 1 -18 3 -6 7 -18 7 -26 0 -9 9 -15 22 -14
14 0 25 -7 29 -18 3 -10 10 -16 15 -13 5 4 9 1 9 -6 0 -8 4 -8 15 1 8 7 12 16
9 21 -3 5 -1 9 5 9 6 0 8 7 4 17 -5 14 -8 13 -14 -5 -5 -12 -16 -22 -26 -22
-11 0 -14 3 -7 8 9 5 9 10 -1 19 -7 7 -17 8 -26 2 -18 -11 -32 -11 -25 0 8 12
-8 54 -17 45z"/>
<path d="M6840 5195 c-1 -5 -2 -13 -2 -17 1 -3 -5 -12 -13 -18 -8 -7 -15 -20
-14 -29 0 -13 2 -14 6 -1 4 8 13 20 21 26 8 6 12 19 9 30 -2 10 -6 15 -7 9z"/>
<path d="M6916 5161 c-4 -5 3 -7 14 -4 23 6 26 13 6 13 -8 0 -17 -4 -20 -9z"/>
<path d="M6774 5130 c1 -19 5 -28 13 -26 7 3 15 1 18 -4 8 -13 45 -13 45 1 0
6 -9 8 -20 4 -15 -5 -22 0 -29 18 -14 37 -28 40 -27 7z"/>
<path d="M6740 5140 c-12 -7 -12 -11 -2 -20 6 -5 10 -7 7 -4 -3 4 0 13 6 21
13 15 10 16 -11 3z"/>
<path d="M6862 5113 c12 -13 24 -23 27 -23 3 0 0 5 -6 11 -6 6 -9 17 -7 23 3
7 -4 12 -15 12 -20 0 -20 -1 1 -23z"/>
<path d="M7115 5130 c3 -5 8 -10 11 -10 2 0 4 5 4 10 0 6 -5 10 -11 10 -5 0
-7 -4 -4 -10z"/>
<path d="M6750 5084 c0 -11 6 -13 19 -9 11 3 22 1 26 -5 8 -13 42 -13 51 1 4
7 1 10 -7 7 -8 -3 -31 1 -51 8 -33 11 -38 11 -38 -2z"/>
<path d="M6860 5081 c0 -6 4 -13 10 -16 6 -3 7 1 4 9 -7 18 -14 21 -14 7z"/>
<path d="M7090 5069 c0 -7 -11 -9 -30 -5 -24 4 -28 3 -18 -7 16 -18 68 -10 61
9 -6 17 -13 18 -13 3z"/>
<path d="M6725 5060 c-12 -19 -15 -60 -5 -60 5 0 10 3 11 8 0 4 3 19 5 35 5
28 0 35 -11 17z"/>
<path d="M6750 5039 c0 -5 5 -7 10 -4 6 3 10 8 10 11 0 2 -4 4 -10 4 -5 0 -10
-5 -10 -11z"/>
<path d="M6980 5030 c0 -5 5 -10 10 -10 6 0 10 5 10 10 0 6 -4 10 -10 10 -5 0
-10 -4 -10 -10z"/>
<path d="M7010 5005 c0 -8 4 -15 10 -15 5 0 7 7 4 15 -4 8 -8 15 -10 15 -2 0
-4 -7 -4 -15z"/>
<path d="M6975 5000 c3 -5 8 -10 11 -10 2 0 4 5 4 10 0 6 -5 10 -11 10 -5 0
-7 -4 -4 -10z"/>
<path d="M7054 5001 c3 -5 -9 -15 -27 -21 -25 -10 -28 -14 -13 -17 10 -3 21
-1 25 4 3 6 14 14 25 20 16 9 17 11 2 16 -10 4 -15 3 -12 -2z"/>
<path d="M7175 5000 c-3 -5 -1 -10 4 -10 6 0 11 5 11 10 0 6 -2 10 -4 10 -3 0
-8 -4 -11 -10z"/>
<path d="M7125 4990 c3 -5 8 -10 11 -10 2 0 4 5 4 10 0 6 -5 10 -11 10 -5 0
-7 -4 -4 -10z"/>
<path d="M7295 4980 c3 -5 8 -10 11 -10 2 0 4 5 4 10 0 6 -5 10 -11 10 -5 0
-7 -4 -4 -10z"/>
<path d="M7095 4963 c1 -10 8 -17 13 -16 6 2 9 -4 6 -12 -8 -19 -20 -19 -28 1
-3 8 -11 12 -17 8 -8 -5 -4 -13 11 -24 20 -15 26 -16 37 -5 18 18 16 29 -6 49
-19 17 -19 17 -16 -1z"/>
<path d="M7225 4954 c9 -9 19 -13 23 -10 3 4 0 11 -8 16 -24 15 -33 11 -15 -6z"/>
<path d="M7147 4933 c-12 -11 -8 -31 8 -37 12 -4 13 -2 6 13 -6 10 -7 21 -4
25 3 3 4 6 1 6 -2 0 -8 -3 -11 -7z"/>
<path d="M7320 4930 c0 -5 5 -10 10 -10 6 0 10 5 10 10 0 6 -4 10 -10 10 -5 0
-10 -4 -10 -10z"/>
<path d="M7220 4920 c0 -5 7 -10 16 -10 8 0 12 5 9 10 -3 6 -10 10 -16 10 -5
0 -9 -4 -9 -10z"/>
<path d="M7273 4907 c0 -6 -1 -21 -2 -32 -2 -19 -3 -19 -21 4 -11 13 -20 18
-20 12 0 -7 -11 -5 -27 6 l-28 17 19 -22 c11 -12 27 -22 36 -22 26 0 42 -24
27 -39 -10 -10 -8 -12 8 -9 16 3 20 12 22 46 0 23 -2 44 -7 47 -4 3 -8 -1 -7
-8z"/>
<path d="M7390 4916 c0 -2 7 -9 15 -16 9 -7 15 -8 15 -2 0 5 -7 12 -15 16 -8
3 -15 4 -15 2z"/>
<path d="M7001 4891 c-8 -6 -9 -11 -3 -15 6 -3 14 -1 17 5 9 14 2 20 -14 10z"/>
<path d="M7120 4898 c0 -9 30 -78 34 -78 16 0 10 32 -10 55 -13 15 -24 26 -24
23z"/>
<path d="M7335 4870 c3 -5 14 -10 23 -10 15 0 15 2 2 10 -20 13 -33 13 -25 0z"/>
<path d="M7311 4844 c0 -11 3 -14 6 -6 3 7 2 16 -1 19 -3 4 -6 -2 -5 -13z"/>
<path d="M7345 4820 c10 -11 20 -18 23 -15 7 6 -18 35 -31 35 -5 0 -2 -9 8
-20z"/>
<path d="M7264 4741 c11 -12 13 -21 7 -25 -6 -4 -7 -14 -4 -23 5 -12 3 -14 -8
-9 -8 4 -5 0 6 -9 21 -16 21 -20 2 -45 -6 -8 -2 -6 11 4 22 19 32 53 11 40 -7
-4 -9 0 -5 14 10 29 -3 72 -22 72 -13 0 -13 -3 2 -19z"/>
<path d="M7330 4750 c-13 -8 -12 -10 3 -10 9 0 17 5 17 10 0 12 -1 12 -20 0z"/>
<path d="M7313 4683 c1 -18 5 -33 9 -33 15 0 16 16 3 40 l-14 25 2 -32z"/>
<path d="M1540 3460 c-237 -50 -339 -303 -190 -472 56 -65 117 -100 255 -148
66 -23 134 -53 152 -66 58 -44 51 -119 -15 -157 -70 -41 -233 -15 -330 53 -23
16 -44 30 -46 30 -2 0 -31 -33 -64 -74 l-61 -73 37 -29 c87 -69 169 -101 286
-113 282 -28 461 92 460 309 0 64 -4 83 -29 129 -46 84 -93 113 -285 177 -58
19 -121 46 -141 59 -93 61 -67 169 46 195 66 15 167 -13 251 -70 l32 -21 51
69 c28 38 51 73 51 78 0 15 -122 92 -175 109 -58 20 -220 28 -285 15z"/>
<path d="M2130 3360 l0 -100 155 0 155 0 0 -424 0 -425 105 2 106 2 -1 423 0
422 155 0 155 0 0 100 0 100 -415 0 -415 0 0 -100z"/>
<path d="M3130 2935 l0 -526 108 3 107 3 3 173 2 172 79 0 79 0 97 -175 97
-175 119 0 c66 0 119 2 119 4 0 2 -51 91 -114 197 l-114 194 37 18 c62 29 108
75 138 135 25 51 28 67 28 157 -1 89 -4 106 -28 152 -50 97 -140 161 -256 183
-29 5 -154 10 -277 10 l-224 0 0 -525z m489 307 c98 -49 107 -190 18 -256 -25
-18 -46 -21 -158 -25 l-129 -3 0 151 0 151 118 0 c92 0 124 -4 151 -18z"/>
<path d="M4142 2938 l3 -523 345 0 345 0 3 98 3 97 -241 0 -240 0 0 115 0 115
210 0 210 0 0 100 0 100 -210 0 -210 0 0 110 0 110 240 0 240 0 0 100 0 100
-350 0 -350 0 2 -522z"/>
<path d="M5191 2958 c-106 -277 -196 -513 -198 -525 -5 -21 -3 -21 107 -20
l112 2 24 65 c13 36 31 84 40 108 l16 42 210 -2 210 -3 40 -107 40 -108 114 0
c63 0 114 2 114 5 0 3 -75 195 -167 427 -91 233 -183 466 -203 518 l-37 95
-114 3 -114 2 -194 -502z m377 72 c33 -91 63 -175 67 -187 l6 -23 -138 4 c-76
2 -137 7 -136 12 1 7 70 196 128 353 3 8 7 12 9 10 2 -2 31 -78 64 -169z"/>
<path d="M6170 2935 l0 -525 110 0 110 0 2 326 3 326 49 -78 c28 -44 97 -153
154 -243 l105 -163 41 64 c23 35 91 144 151 241 61 97 113 176 118 177 4 0 7
-145 7 -322 l-1 -323 105 -3 106 -3 0 525 0 526 -107 0 -108 0 -154 -251 c-85
-137 -158 -246 -162 -242 -4 4 -75 116 -157 248 l-150 240 -111 3 -111 3 0
-526z"/>
<path d="M7490 2935 l0 -525 330 0 330 0 0 100 0 100 -222 0 -223 0 3 425 3
425 -111 0 -110 0 0 -525z"/>
<path d="M8147 3308 c47 -84 130 -232 184 -328 l99 -175 0 -198 0 -198 108 3
107 3 5 205 5 205 163 290 c90 160 170 300 178 312 8 12 14 25 14 28 0 3 -53
5 -118 5 l-119 0 -93 -172 c-51 -95 -104 -192 -118 -216 l-24 -43 -117 216
-116 215 -122 0 -122 0 86 -152z"/>
</g>
</svg>
